<svg width="115" height="115" viewBox="0 0 115 115" fill="none" xmlns="http://www.w3.org/2000/svg">
<rect x="2" y="2" width="111" height="111" rx="23" fill="url(#paint0_linear_692_11)" stroke="black" stroke-width="4"/>
<path d="M27.6914 7.21484C24.957 7.85937 22.8281 10.1445 22.2812 13.0547C21.9883 14.5391 22.0078 83.2891 22.3008 84.832C22.6719 86.8633 23.6484 88.3867 25.2695 89.5C27.1055 90.7695 27.3008 90.7891 36.5391 90.7891H44.8398L46.5586 89.0703L48.2969 87.332L47.6719 87.0781C47.3398 86.9414 46.5781 86.5312 45.9727 86.1797L44.8984 85.5156H36.793C31.6172 85.5156 28.5703 85.4375 28.3164 85.3203C27.3008 84.7734 27.3594 86.7461 27.3594 48.8945C27.3594 23.4453 27.418 13.6992 27.5742 13.3867C27.6914 13.1523 27.9844 12.8008 28.2187 12.625C28.6094 12.3125 30.3477 12.2734 55.6211 12.2734H82.6133L83.1602 12.7422L83.707 13.2109L83.8047 31.6289L83.9023 50.0273L84.6445 50.2812C86.3242 50.8672 88.3359 52.8984 88.6289 54.3242C88.6875 54.6172 88.8242 54.9102 88.9219 54.9687C89.0195 55.0273 89.0586 46.3164 89.0391 33.8164C88.9805 16.6484 88.9219 12.4297 88.707 11.8633C88.2383 10.6328 87.0273 9.08984 85.9336 8.32812C83.8633 6.92187 85.6016 6.99999 55.4844 7.01952C40.5625 7.03905 28.1016 7.11718 27.6914 7.21484Z" fill="black"/>
<path d="M35.836 23.9917C34.5274 24.5191 33.9805 26.3745 34.8008 27.5269C35.6602 28.7378 34.4883 28.6792 55.5235 28.6792C73.7461 28.6792 74.7618 28.6597 75.3868 28.3277C76.0704 27.9566 76.7735 26.9214 76.7735 26.2769C76.7735 25.5738 76.1875 24.5777 75.5625 24.187C74.918 23.7964 74.6446 23.7964 55.5821 23.8159C44.9375 23.8159 36.0704 23.8941 35.836 23.9917Z" fill="black"/>
<path d="M35.6602 36.6676C34.8203 37.1754 34.3906 37.8981 34.3906 38.8356C34.3906 39.4606 34.5273 39.7731 35.0547 40.359L35.7188 41.0817L55.2695 41.1403C76.8906 41.1989 75.582 41.2575 76.3828 39.9489C76.5977 39.5973 76.7734 39.109 76.7734 38.8356C76.7734 38.0739 76.1289 37.0387 75.3867 36.6481C74.7617 36.3161 73.7461 36.2965 55.4844 36.2965C37.0859 36.2965 36.2266 36.3161 35.6602 36.6676Z" fill="black"/>
<path d="M69.0781 49.7149C68.668 49.7735 67.8672 50.4375 66.3437 51.9024C65.1523 53.0742 63.9805 54.1094 63.7461 54.2461C63.1406 54.5586 61.9492 54.5196 59.3906 54.0703C57.6914 53.7774 56.9883 53.7383 56.4414 53.875C55.5625 54.1094 54.5664 55.1836 54.4297 56.0625C54.3711 56.4141 54.1367 57.7617 53.9414 59.0313C53.6875 60.5352 53.4336 61.5313 53.1797 61.8633C52.9648 62.1563 51.7734 62.8789 50.3867 63.5821C47.3789 65.086 46.6953 65.7305 46.6953 67.1758C46.6953 68.0157 46.8906 68.5235 47.9648 70.5938C48.9023 72.4102 49.2344 73.2305 49.2344 73.7969C49.2344 74.3828 48.8828 75.2617 47.9648 77.1172C45.8945 81.2383 46.1094 81.9219 50.0547 83.9532C51.4219 84.6563 52.6719 85.3399 52.8476 85.4961C53.4336 86.0039 53.668 86.7657 54.0195 89.1289C54.5273 92.6446 55.0547 93.5821 56.6953 93.836C57.0664 93.8946 58.5703 93.7578 60.0351 93.5235C63.5508 92.9766 63.5703 92.9766 66.2461 95.6914C67.9062 97.3711 68.4726 97.8203 69.0391 97.918C70.5234 98.211 71.0117 97.9375 73.2383 95.6914C75.9141 92.9766 75.9336 92.9571 79.5078 93.5235C81.0508 93.7774 82.5156 93.9141 82.9062 93.836C84.4492 93.543 84.957 92.6055 85.4844 89.0313C85.6601 87.8008 85.9336 86.5508 86.0703 86.2578C86.4609 85.5157 87.2812 84.9297 89.8203 83.6797C93.3555 81.9024 93.5508 81.1602 91.5195 77.1172C90.6016 75.2813 90.25 74.3633 90.25 73.8164C90.25 73.25 90.582 72.3907 91.5195 70.5742C92.5547 68.5625 92.7891 67.918 92.7891 67.1953C92.7891 65.6914 92.3789 65.2813 89.2539 63.6407C85.9531 61.9024 85.9336 61.8828 85.4648 58.5625C85.0547 55.6719 84.8984 55.1836 84.0976 54.4805C83.1601 53.6602 82.5937 53.6016 79.957 54.0703C77.2812 54.5196 76.3437 54.5586 75.7383 54.2461C75.5039 54.1094 74.332 53.0547 73.1211 51.9024C71.832 50.6328 70.7773 49.7735 70.5625 49.7735C70.3476 49.7735 70.0547 49.7344 69.8984 49.7149C69.7617 49.6758 69.3906 49.6758 69.0781 49.7149ZM74.5273 56.9024C84.0976 59.7149 89.293 69.9688 85.875 79.3633C85.0351 81.7071 83.8242 83.543 81.8516 85.5157C79.6836 87.6836 77.7109 88.8946 74.8203 89.8321C71.6562 90.8477 67.4961 90.8282 64.4101 89.7735C58.9219 87.8985 55.0937 83.9727 53.2187 78.2891C52.7109 76.7461 52.6719 76.3946 52.6719 73.5039C52.6719 70.6524 52.7109 70.2227 53.2187 68.6211C55.1719 62.2149 60.3476 57.6055 66.9492 56.4141C67.457 56.3164 68.9805 56.2774 70.3281 56.3164C72.2422 56.375 73.1406 56.4922 74.5273 56.9024Z" fill="black"/>
<path d="M66.5196 59.0508C61.0508 60.2422 56.5391 64.793 55.3672 70.3203C54.9375 72.3125 55.0938 75.9648 55.6797 77.7031C57.0664 81.8047 59.6446 84.7734 63.3946 86.5898C65.543 87.625 67.3985 88.0547 69.7422 88.0547C72.086 88.0547 73.9414 87.625 76.0899 86.5898C79.8399 84.7734 82.418 81.8047 83.8047 77.7031C84.3907 75.9648 84.5469 72.3125 84.1172 70.3203C82.9453 64.7539 78.4141 60.2031 72.8867 59.0313C71.2852 58.6992 68.0821 58.6992 66.5196 59.0508Z" fill="black"/>
<path d="M47.8672 93.4256C44.2148 97.0779 43.707 97.6638 43.707 98.2107C43.707 99.2849 44.2344 99.5779 47.2227 100.144L49.918 100.652L50.4453 103.387C50.9141 105.711 51.0703 106.179 51.5 106.551C52.5352 107.469 52.5938 107.429 58.4531 101.59C61.4414 98.6013 63.8633 96.0818 63.8242 95.9842C63.7852 95.8865 63.5312 95.6131 63.2383 95.4178C62.7305 95.0271 62.7305 95.0271 59.9766 95.4763C57.6133 95.867 57.0859 95.8865 56.1875 95.6912C54.0195 95.2029 52.7695 93.6209 52.3398 90.7888C52.2227 89.9881 52.1055 89.3045 52.0859 89.2849C52.0664 89.2654 50.1719 91.1209 47.8672 93.4256Z" fill="black"/>
<path d="M87.1445 90.7107C86.7539 93.5232 85.5039 95.1443 83.375 95.7107C82.5742 95.906 82.0664 95.8865 79.6054 95.4959C76.7539 95.0271 76.7344 95.0271 76.2265 95.4178C75.9531 95.6131 75.6992 95.8865 75.6601 95.9842C75.6211 96.0818 78.0429 98.6013 81.0312 101.59C86.8906 107.429 86.9492 107.469 88.0039 106.551C88.4336 106.179 88.5703 105.711 89.039 103.387L89.5664 100.652L92.2812 100.144C94.664 99.6951 95.0742 99.5584 95.4648 99.1092C95.7187 98.8162 95.914 98.3865 95.914 98.1521C95.914 97.8787 94.5469 96.3748 91.6367 93.4646L87.3789 89.1678L87.1445 90.7107Z" fill="black"/>
<defs>
<linearGradient id="paint0_linear_692_11" x1="57.5" y1="0" x2="57.5" y2="115" gradientUnits="userSpaceOnUse">
<stop stop-color="#185574"/>
<stop offset="1" stop-color="#8D8D8D"/>
</linearGradient>
</defs>
</svg>
