<svg width="150" height="150" viewBox="0 0 150 150" fill="none" xmlns="http://www.w3.org/2000/svg">
<circle cx="75" cy="75" r="69.5" fill="url(#paint0_linear_693_72)" stroke="black" stroke-width="11"/>
<g clip-path="url(#clip0_693_72)">
<path d="M47.325 41.7825C31.9917 55.3717 19.1117 66.7758 18.7092 67.1208L18 67.7342L20.99 71.1267C22.6383 72.9858 23.9992 74.5 24.0375 74.5C24.0758 74.5 35.6333 64.2842 49.74 51.7875C63.8467 39.2908 75.4808 29.0942 75.615 29.1517C75.7492 29.2092 87.23 39.31 101.126 51.6342C115.022 63.9392 126.541 74.1358 126.713 74.27C126.982 74.4808 127.403 74.0783 130.029 71.1075C132.425 68.405 132.981 67.6767 132.77 67.5042C132.617 67.4083 119.756 56.0233 104.173 42.2233C88.61 28.4042 75.7108 17.115 75.5383 17.0958C75.3467 17.0767 63.4442 27.4842 47.325 41.7825Z" fill="black"/>
<path d="M35.0583 35.0167C35.0583 40.92 35.1158 45.75 35.2117 45.75C35.4417 45.7308 49.3375 33.1 49.4717 32.755C49.5483 32.5825 49.6058 30.5892 49.6058 28.3467L49.625 24.2833H42.3417H35.0583V35.0167Z" fill="black"/>
<path d="M55.1833 54.5859L35.0583 72.4109L35.0967 98.3242C35.1542 122.321 35.1733 124.276 35.48 124.698C35.6525 124.947 36.055 125.311 36.3425 125.503C36.86 125.848 37.55 125.867 49.8742 125.867H62.85V114.175V102.503L63.5208 101.813L64.2108 101.142H75.5H86.7892L87.4792 101.813L88.15 102.503V114.175V125.867H101.107C113.661 125.867 114.102 125.848 114.677 125.483C115.923 124.717 115.846 126.614 115.846 98.19V72.315L95.8167 54.5475C84.7958 44.7725 75.6917 36.7609 75.5575 36.7609C75.4233 36.7417 66.2617 44.7725 55.1833 54.5859Z" fill="black"/>
</g>
<defs>
<linearGradient id="paint0_linear_693_72" x1="75" y1="0" x2="75" y2="150" gradientUnits="userSpaceOnUse">
<stop stop-color="#FBE282"/>
<stop offset="1" stop-color="#208CA4"/>
</linearGradient>
<clipPath id="clip0_693_72">
<rect width="115" height="108.867" fill="white" transform="translate(18 17)"/>
</clipPath>
</defs>
</svg>
