<svg width="115" height="115" viewBox="0 0 115 115" fill="none" xmlns="http://www.w3.org/2000/svg">
<rect x="2" y="2" width="111" height="111" rx="23" fill="url(#paint0_linear_684_22)" stroke="black" stroke-width="4"/>
<g clip-path="url(#clip0_684_22)">
<path d="M27.2148 7.42969C26.4726 7.64453 25.8085 7.85938 25.7695 7.89844C25.6914 7.97656 28.8749 20.5547 29.0703 20.8672C29.1679 21.0234 29.5585 20.9844 30.5546 20.75C31.2968 20.5742 31.9804 20.3594 32.0585 20.2813C32.1953 20.1641 29.6757 9.73438 28.9531 7.33203C28.8359 6.94141 28.9335 6.92188 27.2148 7.42969Z" fill="black"/>
<path d="M76.375 7.70319C75.6914 8.17194 75.5742 8.54304 75.0664 12.0782C74.793 13.9141 74.4805 15.5938 74.3828 15.8087C74.0312 16.4532 73.2891 16.8048 72.625 16.668C72.1172 16.5508 71.6094 15.9844 69.7734 13.543C67.4102 10.379 66.8828 9.94929 65.9258 10.3008C65.6328 10.418 64.2852 11.3555 62.918 12.3907L60.418 14.2657L58.6406 14.1485C53.4844 13.836 47.8594 15.0469 42.9961 17.5079C39.8906 19.0704 37.5078 20.8087 35.0273 23.3087C29.8516 28.4844 26.8242 34.7149 25.9062 41.9805C25.6914 43.8165 25.6523 43.9141 25.2031 43.9141C24.9492 43.9141 24.5 44.1485 24.207 44.4415C23.7578 44.9102 23.582 45.418 23.1133 47.7618C22.8008 49.3047 22.4688 50.5547 22.3711 50.5547C22.293 50.5547 21.1992 49.8321 19.9297 48.9532C16.6484 46.6485 16.9023 46.5899 13.25 50.2813C10.7695 52.7618 10.3203 53.3087 10.3203 53.7969C10.3203 54.2266 10.8086 55.086 11.9805 56.8243C12.8984 58.1524 13.6406 59.2852 13.6406 59.3438C13.6406 59.4024 12.3906 59.7149 10.8672 60.0274C8.50391 60.4962 7.99609 60.6719 7.54688 61.1212L7 61.6485V65.4962V69.3438L7.54688 69.8712C7.99609 70.3204 8.50391 70.4962 10.8086 70.9649C12.3125 71.2774 13.582 71.5508 13.6211 71.5899C13.6797 71.629 12.9375 72.8008 12 74.1876C10.457 76.4532 10.2812 76.7657 10.3984 77.3516C10.4961 77.8594 11.1602 78.6407 13.3086 80.7891C16.9219 84.4024 16.6484 84.3438 19.8711 82.1172C21.2188 81.1993 22.3516 80.4376 22.4297 80.4376C22.4883 80.4376 22.8008 81.6876 23.1133 83.211C23.582 85.5743 23.7578 86.0821 24.207 86.5313L24.7344 87.0782H28.582H32.4297L32.957 86.5313C33.4062 86.0821 33.582 85.5743 34.0508 83.211C34.3633 81.6876 34.6758 80.4376 34.7344 80.4376C34.8125 80.4376 35.9453 81.1993 37.293 82.1172C40.3203 84.2071 40.418 84.2071 42.4688 82.1758L43.875 80.7891L43.9531 83.8751C44.0117 86.5313 44.0898 87.1172 44.4414 87.8985C44.9883 89.1094 45.7305 90.0469 46.5508 90.6133L47.2148 91.0626L47.2734 96.4532L47.332 101.824L47.8789 102.996C48.582 104.52 49.7344 105.672 51.2188 106.356C52.3906 106.883 52.4883 106.902 56.5117 106.961C60.9648 107.039 62.4688 106.863 63.7383 106.121C64.9102 105.438 65.9844 104.285 66.5508 103.094C67.0586 102.02 67.0586 101.981 67.1172 96.5508L67.1953 91.0821L67.957 90.5352C68.3867 90.2422 68.9922 89.5782 69.3242 89.0704C70.3398 87.4688 70.4766 86.6485 70.4766 82.1954C70.4766 75.7305 71.0625 74.3829 75.0469 71.5508C77.6641 69.6954 78.1719 69.2266 77.9766 68.8751C77.8789 68.7188 77.4102 68.1329 76.9023 67.6055L76.0234 66.6094L75.3398 67.1758C74.9883 67.4883 73.8555 68.3282 72.8594 69.0508C70.0078 71.0821 68.6016 72.879 67.7031 75.5547C67.332 76.668 67.2734 77.4297 67.1758 81.7266L67.0586 86.629L66.5117 87.3321C65.4766 88.6797 65.6914 88.6602 57.0391 88.6016L49.2852 88.543L48.6406 88.0938C47.4102 87.1954 47.3516 86.9219 47.2148 81.4141C47.0977 75.8282 46.9414 75.1055 45.4961 72.879C44.5391 71.4141 43.6406 70.5352 41.375 68.9141C38.9531 67.1758 37.7031 66.1016 36.0625 64.2852C32.6445 60.5157 30.2812 55.6719 29.2461 50.2618C28.8359 48.1719 28.8945 42.293 29.3438 40.2032C31.1406 31.8047 36.082 24.9883 43.25 21.0235C47 18.9532 50.8477 17.8008 55.3008 17.4493C56.7461 17.3321 56.8047 17.3516 56.8047 17.7423C56.8047 18.3282 57 18.6602 59.2656 21.6876C61.3555 24.5001 61.6484 25.1837 61.043 25.9649C60.4375 26.7462 60.1055 26.7657 56.3164 26.2188C52.332 25.6524 51.7852 25.6915 51.3555 26.6876C51.0039 27.4493 49.6758 37.0782 49.832 37.7032C50.0664 38.5821 50.7109 38.836 54.168 39.3438C55.9453 39.5977 57.625 39.8712 57.8984 39.9297C58.8945 40.1837 59.2852 41.629 58.6016 42.4688C58.4258 42.7032 57.0195 43.8165 55.5156 44.9493C52.7422 47.0196 52.5078 47.2735 52.5078 48.1133C52.5078 48.6407 58.6797 57.0391 59.3242 57.3712C60.1641 57.8204 60.6719 57.6055 63.582 55.4376C65.1641 54.2462 66.668 53.2305 66.9023 53.1719C67.5469 52.9962 68.3867 53.3477 68.7188 53.9141C68.9727 54.3829 68.9531 54.793 68.543 57.7227C68.3086 59.5196 68.1328 61.3555 68.1719 61.7657C68.2695 63.0547 68.6406 63.1915 73.8164 63.9337C79.2461 64.7344 80.0859 64.7735 80.6328 64.2266C81.1016 63.7579 81.1211 63.6993 81.707 59.6368C82.1367 56.5899 82.2148 56.2774 82.6836 55.8672C83.1914 55.4376 83.8164 55.3204 84.4414 55.5547C84.6172 55.6329 85.6914 56.9219 86.8242 58.4454C87.957 59.9493 89.0508 61.3555 89.2656 61.5313C90.1836 62.3321 90.6914 62.0977 95.2812 58.6602C99.6172 55.3985 100.125 54.8907 99.8906 53.9727C99.832 53.7383 98.8359 52.293 97.6641 50.7305C96.4922 49.168 95.4766 47.7227 95.3984 47.4883C95.2227 46.9219 95.5547 46.1407 96.1602 45.7501C96.6484 45.4376 96.8633 45.4376 100.359 45.9258C104.148 46.4532 104.676 46.4532 105.223 45.7891C105.457 45.5157 106.98 36.0235 107 34.793C107 34.5587 106.805 34.129 106.57 33.8555C106.16 33.3868 105.828 33.3087 102.332 32.8008C100.008 32.4493 98.4648 32.1368 98.2891 31.961C97.8398 31.5118 97.6445 30.5352 97.8984 30.0274C98.0156 29.7735 99.3047 28.6602 100.75 27.5665C103.68 25.3399 104.266 24.7735 104.266 24.0899C104.266 23.7774 103.211 22.1954 101.316 19.6563C97.5859 14.6563 97.5469 14.6173 96.6289 14.6173C96.0039 14.6173 95.4766 14.9298 92.9961 16.7657C91.4141 17.9571 89.9102 18.9727 89.6758 19.0313C89.0117 19.2071 88.1719 18.6993 87.9375 17.9766C87.7812 17.4688 87.8398 16.6485 88.1914 14.2657C88.7383 10.418 88.7383 10.0665 88.2109 9.44147C87.7812 8.95319 87.4883 8.8946 82.4883 8.17194C79.5977 7.74225 77.1172 7.39069 77.0195 7.39069C76.9023 7.39069 76.6094 7.52741 76.375 7.70319ZM85.0664 11.961C85.125 12.0001 85.0078 13.0352 84.832 14.2657C84.3633 17.4102 84.4023 18.4454 85.0078 19.6368C86.1992 22.0196 89.168 23.0548 91.4727 21.9024C91.7852 21.7266 93.0156 20.9063 94.168 20.0274C95.3203 19.168 96.2969 18.504 96.3359 18.543C97.1172 19.5391 100.008 23.4649 100.066 23.6602C100.125 23.7969 99.3438 24.5001 98.2891 25.2618C95.2031 27.5079 94.4609 28.5821 94.4609 30.7305C94.4414 32.7227 95.6133 34.4805 97.3906 35.2422C97.7812 35.3985 99.2852 35.711 100.73 35.9258C102.176 36.1212 103.387 36.336 103.426 36.3555C103.445 36.3946 103.25 37.8204 102.996 39.5196C102.723 41.2383 102.508 42.7032 102.508 42.7618C102.508 42.8204 101.395 42.7032 100.027 42.5079C98.6406 42.293 97.0781 42.1758 96.5312 42.2149C93.582 42.5079 91.5703 45.2422 92.1562 48.1524C92.332 49.0118 92.7227 49.6563 94.1289 51.5508C95.0859 52.8204 95.8672 53.9141 95.8672 53.9532C95.8672 53.9922 94.6953 54.9102 93.25 55.9844L90.6328 57.9571L88.8945 55.6719C86.668 52.7422 85.9062 52.2149 83.7773 52.2149C82 52.2344 81.043 52.6446 79.9688 53.9141C79.1289 54.8907 78.7969 55.9454 78.4648 58.6993C78.3281 59.793 78.1719 60.7891 78.0938 60.9258C77.9766 61.0821 77.1562 61.043 74.793 60.711C71.1602 60.1837 71.4922 60.5352 71.9414 57.586C72.3711 54.7344 72.332 53.7188 71.6875 52.4883C70.7109 50.6329 68.875 49.6172 66.8438 49.8321C65.5547 49.9688 64.9883 50.2618 62.5078 52.1368L60.457 53.6797L58.543 51.1016C57.4688 49.6954 56.6094 48.4649 56.6094 48.4063C56.6094 48.3282 57.5664 47.5274 58.7578 46.6485C59.9297 45.7501 61.1211 44.6954 61.3945 44.3047C63.0352 41.9219 62.332 38.6212 59.8516 37.1758C59.207 36.8047 58.3281 36.5899 56.1992 36.2579C54.6562 36.043 53.3672 35.8282 53.3281 35.8087C53.2305 35.7305 54.1094 29.5782 54.2461 29.4219C54.3047 29.3438 55.5547 29.461 57 29.6758C60.5156 30.1837 61.7461 29.9493 63.2305 28.4649C64.1289 27.5665 64.4609 26.7852 64.5781 25.3399C64.6953 23.6798 64.3438 22.8985 62.3711 20.2813C61.5508 19.2071 60.9062 18.2305 60.9453 18.1329C61.0039 17.9766 65.8867 14.2266 66.0625 14.2266C66.1016 14.2266 66.8828 15.2423 67.8203 16.4727C68.7383 17.7032 69.832 18.9337 70.2422 19.1876C72.3125 20.5352 74.7539 20.2423 76.5703 18.4258C77.4492 17.5274 77.7812 16.5899 78.1914 13.6407C78.3672 12.4102 78.543 11.2969 78.582 11.1798C78.6211 11.0235 79.6172 11.1016 81.8242 11.4337C83.5625 11.6876 85.0273 11.9219 85.0664 11.961ZM27 54.4415C27.1758 55.0274 27.3125 55.5352 27.3125 55.5547C27.3125 55.5743 26.8438 55.711 26.2969 55.8282C22.293 56.7657 19.0898 60.418 18.6211 64.5587C18.2109 68.0547 20.1836 72.0587 23.1719 73.8751C27.8984 76.7462 33.7383 75.5157 36.7852 71.004L37.4102 70.0665L37.9766 70.5352C38.2891 70.7696 39.1289 71.3946 39.832 71.9024C41.375 72.9766 42.5469 74.2657 43.1328 75.4962L43.5625 76.3946L41.7852 78.1719L40.0273 79.9297L38.0547 78.6016C36.9609 77.8594 35.75 77.1758 35.3398 77.0782C33.9727 76.7266 32.4297 77.4688 31.7266 78.836C31.5898 79.129 31.2578 80.3594 31.0039 81.5508L30.5547 83.7579H28.5625H26.5898L26.2578 82.0977C25.5547 78.543 24.9688 77.586 23.2109 77.1172C22.0781 76.8047 21.3164 77.0977 19.0703 78.6212L17.1367 79.9297L15.6523 78.4258L14.1484 76.9415L15.4766 74.9883C16.1992 73.9141 16.8828 72.7032 16.9609 72.293C17.3516 70.6524 16.2969 68.9337 14.5977 68.4454C14.0703 68.2891 12.8789 67.9962 11.9805 67.8204L10.3203 67.4883V65.4962V63.504L12.5078 63.0547C13.7188 62.8204 14.9492 62.5079 15.2227 62.3516C16.4922 61.7071 17.2734 60.0469 16.9805 58.7383C16.8828 58.3477 16.2383 57.1563 15.5156 56.1212C14.8125 55.086 14.2266 54.168 14.2266 54.0899C14.2266 54.0313 14.8906 53.3087 15.6914 52.5079L17.1367 51.0626L19.1875 52.4688C21.4141 53.9727 22.1367 54.2266 23.3281 53.8946C24.6367 53.543 25.5352 52.4493 25.8477 50.8477C26.0039 50.0665 26.0039 50.086 26.3359 51.7266C26.5312 52.6446 26.8242 53.8555 27 54.4415ZM29.1875 59.9688C30.3203 62.2149 31.5898 64.0508 33.7383 66.5508L34.8125 67.7813L34.3438 68.6602C33.7188 69.8516 32.1953 71.1602 30.8672 71.6485C29.9688 72.0001 29.4609 72.0587 28.1914 72.0001C25.5742 71.8633 23.7383 70.5938 22.5859 68.1719C22.0391 67.0196 22 66.8243 22.0781 65.2422C22.1367 64.0313 22.293 63.2891 22.6055 62.6446C23.582 60.5938 25.8672 59.0118 27.9375 58.9727C28.6406 58.9532 28.6992 59.0118 29.1875 59.9688ZM63.8359 93.6212V95.2813H57.1953H50.5547V93.7579C50.5547 92.918 50.6133 92.1563 50.6914 92.0977C50.75 92.0196 53.7383 91.961 57.332 91.961H63.8359V93.6212ZM63.8359 99.8126C63.8359 101.316 63.3281 102.43 62.332 103.094C61.6289 103.582 61.5312 103.582 57.4102 103.641C52.6641 103.699 52.3516 103.621 51.2773 102.293C50.8477 101.746 50.6914 101.297 50.6133 100.399C50.4375 98.4454 49.8516 98.6016 57.293 98.6016H63.8359V99.8126Z" fill="black"/>
<path d="M75.6328 23.1132C71.5898 23.9921 68.2695 26.6093 66.4922 30.2812C65.457 32.4492 65.1445 33.8359 65.1445 36.1992C65.1641 39.7539 66.4531 42.8203 69.0117 45.3984C70.3398 46.7265 70.9063 47.1367 72.4492 47.8789C74.8516 49.0312 75.9844 49.2851 78.582 49.2656C80.3203 49.2461 81.0234 49.1484 82.293 48.7382C85.9258 47.5468 88.6406 45.164 90.3203 41.6875C92.8008 36.5507 91.4922 30.1054 87.2148 26.2382C85.75 24.9101 83.0352 23.5039 81.1211 23.1132C79.4414 22.7617 77.2344 22.7617 75.6328 23.1132ZM80.6914 26.4335C84.2266 27.3515 87.0391 30.1445 87.9766 33.6601C88.8555 36.8828 87.8008 40.5937 85.3008 43.0937C81.3945 47 75.2813 46.9609 71.3359 43.0351C67.4102 39.1093 67.4492 32.9765 71.4141 29.0898C73.9922 26.5703 77.4297 25.5742 80.6914 26.4335Z" fill="black"/>
<path d="M12.3516 17.4494C11.8633 18.1525 11.4727 18.758 11.5117 18.797C12.2149 19.3439 22.7617 26.7853 22.918 26.8439C23.1133 26.922 25.0859 24.422 24.9297 24.2853C24.4805 23.8947 13.543 16.1798 13.4258 16.1798C13.3477 16.1798 12.8594 16.7463 12.3516 17.4494Z" fill="black"/>
<path d="M43.5624 26.8245C38.914 30.2229 35.6132 35.3401 34.4609 40.9846C32.6445 49.9299 36.3164 59.1682 43.8164 64.5198C44.6757 65.1448 46.707 66.2776 48.3085 67.0588C51.0039 68.3674 51.3554 68.6018 52.5468 69.8518C54.0312 71.4338 54.9687 73.2112 55.2812 75.0276C55.6523 77.3518 55.4375 77.1174 57.2539 77.1174H58.875L58.7382 75.7893C58.5429 73.9924 58.3867 73.3284 57.7812 71.844C57.0976 70.1448 56.0625 68.6018 54.6953 67.2737C53.1914 65.8088 52.4882 65.3401 49.7929 64.0705C46.8632 62.7034 45.2617 61.6487 43.4648 59.9299C40.164 56.8049 37.996 52.4299 37.4492 47.8205C36.6679 40.9455 39.6757 33.8557 45.1445 29.7932C45.8671 29.2659 46.4531 28.758 46.4531 28.6604C46.4531 28.5237 44.8906 25.9455 44.8124 25.9455C44.7929 25.9455 44.2265 26.3362 43.5624 26.8245Z" fill="black"/>
<path d="M15.2617 34.012C11.8046 34.8909 8.93355 35.6721 8.85543 35.7307C8.73824 35.8675 9.32418 38.4456 9.53902 38.6995C9.63668 38.8167 21.2968 36.0628 22.5664 35.6136C22.8593 35.5159 22.0781 32.3909 21.7656 32.4104C21.6484 32.4104 18.7187 33.1526 15.2617 34.012Z" fill="black"/>
<path d="M88.8359 70.5742V72.2344H94.5977H100.359V70.5742V68.9141H94.5977H88.8359V70.5742Z" fill="black"/>
<path d="M87.0781 78.7969C86.5117 79.5 86.1211 80.1445 86.2187 80.2227C86.3164 80.3008 88.5429 82.1562 91.1601 84.3438L95.9453 88.3086L96.9804 87.1562C97.5468 86.5312 98.0156 85.9453 98.0156 85.8672C98.0156 85.75 90.1836 79.1289 88.4257 77.7617C88.1718 77.5469 87.957 77.7031 87.0781 78.7969Z" fill="black"/>
<path d="M55.6328 82.8789V85.3203H57.293H58.9531V82.8789V80.4375H57.293H55.6328V82.8789Z" fill="black"/>
<path d="M78.875 87.8594V93.7188H80.5352H82.1953L82.1562 87.8984L82.0977 82.0977L80.4961 82.0391L78.875 81.9805V87.8594Z" fill="black"/>
</g>
<defs>
<linearGradient id="paint0_linear_684_22" x1="57.5" y1="0" x2="57.5" y2="115" gradientUnits="userSpaceOnUse">
<stop stop-color="#FDEFCC"/>
<stop offset="0.975" stop-color="#FCE480"/>
</linearGradient>
<clipPath id="clip0_684_22">
<rect width="100" height="100" fill="white" transform="translate(7 7)"/>
</clipPath>
</defs>
</svg>
