<svg width="123" height="123" viewBox="0 0 123 123" fill="none" xmlns="http://www.w3.org/2000/svg">
<g filter="url(#filter0_d_684_32)">
<rect x="4" width="115" height="115" rx="25" fill="url(#paint0_linear_684_32)"/>
<rect x="6" y="2" width="111" height="111" rx="23" stroke="black" stroke-width="4"/>
</g>
<path d="M43.7149 9.22656L13.0508 11.3945L12.9922 12.0781C12.9336 12.8008 18.7344 95.4766 18.8516 95.5742C18.8906 95.5938 20.4141 95.4961 22.2305 95.3594C24.0664 95.2227 25.961 95.1055 26.4883 95.1055L27.4063 95.0859V101.043V107H58.8516H90.2969V103.582C90.2969 100.809 90.3555 100.164 90.5703 100.164C90.7071 100.164 92.875 100.379 95.375 100.652C97.875 100.926 99.9649 101.102 100.023 101.062C100.16 100.906 109.145 17.3906 109.027 17.293C108.988 17.2539 101.781 16.4531 93.0313 15.5156C84.2813 14.5781 76.8789 13.7773 76.6055 13.7188C76.1172 13.6211 76.0781 13.5625 75.961 11.9609C75.9024 11.0625 75.7852 9.57812 75.7266 8.66016L75.5899 7L74.9844 7.01953C74.6524 7.03906 60.5899 8.01562 43.7149 9.22656ZM70.1797 13.582C70.1797 13.7773 70.3164 15.5547 70.4727 17.5469C70.6289 19.5391 70.7656 21.4922 70.7656 21.8828V22.625H49.086H27.4063L27.3672 55.8672L27.3086 89.1289L25.8438 89.2266C25.043 89.2852 24.3399 89.3242 24.3008 89.2852C24.1836 89.207 19.1055 16.9805 19.2227 16.9023C19.2813 16.8438 67.8164 13.3477 69.6524 13.2695C70.0235 13.25 70.1797 13.3477 70.1797 13.582ZM89.8281 21.0625C96.7813 21.8047 102.504 22.4688 102.563 22.5273C102.641 22.6055 94.9844 94.5 94.8867 94.6562C94.8672 94.6758 93.8125 94.5977 92.5625 94.4609L90.2969 94.2266V58.4258V22.625H83.461H76.625V21.4727C76.625 20.8281 76.5664 20.1836 76.5078 20.0078C76.4297 19.793 76.5078 19.6953 76.7813 19.6953C77.0156 19.6953 82.875 20.3008 89.8281 21.0625ZM84.4375 64.8125V101.141H58.8516H33.2656V64.8125V28.4844H58.8516H84.4375V64.8125Z" fill="black"/>
<path d="M48.6953 37.5859C46.3321 37.8593 44.3399 38.7773 42.6797 40.2812C40.6289 42.1953 39.5743 44.9492 39.7891 47.8203C40.043 51.2187 41.7227 53.8945 44.5547 55.3984C46.2149 56.2773 47.3477 56.5898 49.3789 56.7265C52.5625 56.9414 55.1992 56.082 57.2305 54.1875L58.3242 53.1718L56.4297 51.4726C55.3946 50.5351 54.4961 49.7734 54.4375 49.7734C54.3789 49.7734 53.9297 50.1054 53.4219 50.5156C52.211 51.5117 51.625 51.7265 50.2969 51.7265C48.1094 51.707 46.6055 50.457 46.1563 48.2695C45.6875 46.0039 46.5664 43.9336 48.3633 43.0351C50.043 42.2148 52.0157 42.5273 53.5782 43.875L54.4571 44.6367L56.3125 42.9961C57.3282 42.0781 58.1875 41.2578 58.2266 41.1796C58.3242 40.9453 56.293 39.2265 55.336 38.7382C53.5391 37.8203 50.7657 37.3515 48.6953 37.5859Z" fill="black"/>
<path d="M58.2656 38.1133C58.2656 38.25 59.9844 42.3906 62.0742 47.332L65.8633 56.3164L68.9492 56.375L72.0352 56.4141L75.8437 47.3906C77.9336 42.4297 79.6719 38.2695 79.7109 38.1133C79.7695 37.918 79.1836 37.8594 76.7617 37.8594H73.7539L71.8789 42.293C70.8633 44.7539 69.8672 47.1172 69.6914 47.5664C69.4961 48.0352 69.2812 48.4062 69.2031 48.4062C69.125 48.4062 68.1094 46.0625 66.9375 43.1719L64.7891 37.957L61.5273 37.8984C58.9492 37.8594 58.2656 37.8984 58.2656 38.1133Z" fill="black"/>
<path d="M39.7109 67.9375V70.8672H58.8516H77.9922V67.9375V65.0078H58.8516H39.7109V67.9375Z" fill="black"/>
<path d="M39.7109 78.2891V81.2188H58.8516H77.9922V78.2891V75.3594H58.8516H39.7109V78.2891Z" fill="black"/>
<path d="M39.7109 88.8359V91.7656L58.8125 91.7266L77.8945 91.668L77.9531 88.7773L78.0117 85.9062H58.8516H39.7109V88.8359Z" fill="black"/>
<defs>
<filter id="filter0_d_684_32" x="0" y="0" width="123" height="123" filterUnits="userSpaceOnUse" color-interpolation-filters="sRGB">
<feFlood flood-opacity="0" result="BackgroundImageFix"/>
<feColorMatrix in="SourceAlpha" type="matrix" values="0 0 0 0 0 0 0 0 0 0 0 0 0 0 0 0 0 0 127 0" result="hardAlpha"/>
<feOffset dy="4"/>
<feGaussianBlur stdDeviation="2"/>
<feComposite in2="hardAlpha" operator="out"/>
<feColorMatrix type="matrix" values="0 0 0 0 0 0 0 0 0 0 0 0 0 0 0 0 0 0 0.25 0"/>
<feBlend mode="normal" in2="BackgroundImageFix" result="effect1_dropShadow_684_32"/>
<feBlend mode="normal" in="SourceGraphic" in2="effect1_dropShadow_684_32" result="shape"/>
</filter>
<linearGradient id="paint0_linear_684_32" x1="141.5" y1="141.5" x2="-17" y2="16" gradientUnits="userSpaceOnUse">
<stop stop-color="#8398AA"/>
<stop offset="1" stop-color="#FBB997"/>
</linearGradient>
</defs>
</svg>
