<svg width="115" height="115" viewBox="0 0 115 115" fill="none" xmlns="http://www.w3.org/2000/svg">
<rect x="2" y="2" width="111" height="111" rx="23" fill="url(#paint0_linear_693_15)" stroke="black" stroke-width="4"/>
<path d="M44.5444 10.1124C42.3629 10.4386 40.4873 11.9166 39.6718 13.9758C39.2436 15.0563 39.1927 15.6373 39.1927 19.1338V22.4263L29.0805 22.4671C19.0194 22.4977 18.948 22.4977 17.9389 22.7321C16.0938 23.1501 14.0041 24.1185 12.7605 25.148C10.3649 27.1154 8.77473 29.725 8.19369 32.6812C7.97963 33.7515 7.97963 92.0594 8.19369 93.1297C8.84609 96.4426 10.7727 99.358 13.5148 101.193C15.0846 102.243 16.6646 102.875 18.5403 103.201C19.6514 103.395 96.1753 103.385 97.3884 103.191C98.4282 103.028 100.08 102.498 100.977 102.049C104.544 100.245 107.164 96.6771 107.745 92.8035C107.969 91.2948 107.969 34.3733 107.745 32.9666C107.021 28.5018 103.902 24.7403 99.6616 23.2112C99.264 23.0685 98.4791 22.8443 97.9287 22.7219C96.9501 22.5079 96.8176 22.4977 86.8277 22.4671L76.7054 22.4263V19.093C76.7054 15.2704 76.6443 14.8218 75.9817 13.4763C75.2273 11.9472 73.79 10.7546 72.0673 10.2449C71.4964 10.0716 70.6504 10.0614 58.3058 10.041C51.0785 10.0308 44.8807 10.0614 44.5444 10.1124ZM68.5607 16.5344C69.2742 16.8708 69.8247 17.4212 70.1407 18.094C70.3649 18.5833 70.3853 18.726 70.3853 20.5201V22.4365H57.949H45.5128V20.5201C45.5128 18.8382 45.5433 18.5629 45.7166 18.1654C46.155 17.197 46.9806 16.5242 47.9796 16.3203C48.2243 16.2795 52.8216 16.249 58.2039 16.249L67.9898 16.2693L68.5607 16.5344ZM97.0418 28.8993C99.1417 29.5313 100.732 31.1012 101.435 33.2418C101.609 33.7617 101.629 34.4039 101.66 42.1307L101.69 50.4691H57.949H14.208L14.2385 42.1307C14.2691 34.4039 14.2895 33.7617 14.4628 33.2418C15.2681 30.7953 17.1845 29.1338 19.6208 28.7668C19.9266 28.7158 37.3374 28.6852 58.3058 28.6954C94.8604 28.7056 96.4506 28.7158 97.0418 28.8993ZM45.7064 57.6251C45.4516 58.9197 45.4516 60.8565 45.7064 62.1613C46.7156 67.3295 50.9052 71.3254 56.1142 72.0899C57.419 72.2734 59.8043 72.1613 61.0173 71.8453C65.5026 70.673 68.8665 67.3193 70.0489 62.8341C70.4159 61.4273 70.4873 59.1134 70.2019 57.6761L70.0082 56.6873H85.8491H101.68L101.66 74.3427C101.629 91.1929 101.619 92.039 101.445 92.569C100.854 94.3325 99.682 95.7189 98.2039 96.4222C97.735 96.6465 97.0928 96.8912 96.787 96.9625C95.9511 97.1766 19.947 97.1766 19.1111 96.9727C18.8053 96.8912 18.1631 96.6465 17.684 96.4121C16.1855 95.6883 15.0438 94.3223 14.4526 92.569C14.2793 92.039 14.2691 91.1929 14.2385 74.3427L14.2182 56.6873H30.0489H45.8899L45.7064 57.6251ZM63.6167 57.2581C64.6769 59.6638 64.1978 62.2836 62.3425 64.1389C61.0785 65.4131 59.7431 65.9635 57.949 65.9635C56.155 65.9635 54.8298 65.4131 53.5556 64.1389C51.6799 62.2734 51.2008 59.6129 52.2916 57.2174L52.5362 56.6873H57.949H63.3619L63.6167 57.2581Z" fill="black"/>
<defs>
<linearGradient id="paint0_linear_693_15" x1="57.5" y1="0" x2="57.5" y2="115" gradientUnits="userSpaceOnUse">
<stop stop-color="#185574"/>
<stop offset="1" stop-color="#8D8D8D"/>
</linearGradient>
</defs>
</svg>
