<svg width="115" height="115" viewBox="0 0 115 115" fill="none" xmlns="http://www.w3.org/2000/svg">
<rect x="2" y="2" width="111" height="111" rx="23" fill="url(#paint0_linear_680_2)" stroke="black" stroke-width="4"/>
<g clip-path="url(#clip0_680_2)">
<path d="M50.3163 7.26488C44.653 8.13046 38.255 10.2282 33.3571 12.8046C30.9489 14.0775 28.2652 15.7781 26.6632 17.0612C23.6122 19.4848 19.5101 23.5683 17.051 26.6335C13.2652 31.3382 9.84688 38.5582 8.07137 45.5439C7.12239 49.271 6.94892 51.491 7.03055 58.6804C7.09178 63.6396 7.1428 64.3117 7.72443 67.0714C10.2448 78.9757 17.1326 89.8005 26.8469 97.1325C31.3367 100.524 36.0816 102.947 41.8979 104.841C47.4999 106.654 50.1122 106.97 58.6836 106.868C64.0816 106.796 65.1326 106.705 68.0714 105.972C70.6428 105.33 74.153 104.19 76.3469 103.273C91.8469 96.8474 102.867 83.3138 106.377 66.4299C106.908 63.8942 106.949 63.2425 106.949 57.051C106.939 50.8596 106.877 49.8005 106.326 47.1732C105.837 44.882 104.714 41.2262 103.663 38.5683C99.9387 29.0877 93.204 20.8189 84.6326 15.2079C79.653 11.9492 74.4081 9.65796 68.6122 8.22211C66.0204 7.58057 64.3673 7.33617 61.6428 7.20378C58.4795 7.05103 51.4591 7.09177 50.3163 7.26488ZM60.8265 13.2119C66.4489 13.6091 70.704 14.7598 75.9591 17.2853C78.1632 18.3545 79.2448 18.9553 81.0204 20.1162C85.5101 23.0286 89.2755 26.5622 92.4897 30.88C96.2959 35.992 99.3571 42.825 100.357 48.4054C100.888 51.3688 101.112 55.4013 100.969 59.3423C100.735 66.0938 99.5408 70.4828 96.0816 77.4584L94.8979 79.8413L93.8877 78.8942C91.5612 76.7455 88.653 74.8922 84.1938 72.7231C81.0101 71.1753 79.1428 70.4013 73.153 68.1407L72.5204 67.8963L71.4693 68.7924C68.0408 71.6743 65.8469 73.0592 63.1734 74.0266C60.8979 74.8514 59.8877 74.9736 56.1326 74.8922C53.4387 74.8311 52.9183 74.7598 51.4387 74.2608C48.5204 73.2629 46.1938 71.8474 42.8367 69.0368L41.4897 67.9064L40.7959 68.161C35.3469 70.2079 32.9897 71.1855 29.9081 72.6824C25.3367 74.8922 22.3367 76.8066 20.0714 78.9553C19.5203 79.4747 19.102 79.8005 19.0408 79.7496C18.8979 79.5969 16.7244 74.994 16.2346 73.8229C14.551 69.7089 13.4897 65.4421 13.0101 60.8189C12.8163 59.0164 12.8469 54.4441 13.051 52.5195C13.5203 48.2934 14.4693 44.4645 15.9999 40.6559C18.255 35.0551 21.4387 30.2791 25.8469 25.8901C30.3367 21.4197 34.9591 18.3749 40.6734 16.1345C44.8163 14.5052 49.3775 13.3647 52.7652 13.1101C54.1224 13.0083 58.7244 13.0694 60.8265 13.2119Z" fill="black"/>
<path d="M54.7244 24.6174C49.5203 25.2692 44.7142 28.1307 41.3468 32.6011C39.2652 35.3608 37.8774 38.8639 37.3979 42.5401C37.2244 43.925 37.2448 46.817 37.4489 48.3445C37.8979 51.7152 38.9183 54.872 40.6428 58.2427C43.4897 63.8231 47.5305 67.7845 52.1836 69.5767C56.0611 71.0635 60.1121 70.758 63.7856 68.6908C66.4285 67.204 69.0815 64.76 71.1019 61.9392C73.8979 58.039 75.8775 53.1612 76.5101 48.65C76.7142 47.1429 76.6836 42.8659 76.4489 41.481C75.5611 36.1551 72.2244 30.9209 67.7652 27.8863C65.3877 26.2671 63.0203 25.2997 60.1428 24.76C59.153 24.5767 55.7754 24.4851 54.7244 24.6174Z" fill="black"/>
</g>
<defs>
<linearGradient id="paint0_linear_680_2" x1="57.5" y1="0" x2="57.5" y2="115" gradientUnits="userSpaceOnUse">
<stop stop-color="#185574"/>
<stop offset="1" stop-color="#8D8D8D"/>
</linearGradient>
<clipPath id="clip0_680_2">
<rect width="100" height="100" fill="white" transform="translate(7 7)"/>
</clipPath>
</defs>
</svg>
