<svg width="115" height="115" viewBox="0 0 115 115" fill="none" xmlns="http://www.w3.org/2000/svg">
<rect x="2" y="2" width="111" height="111" rx="23" fill="url(#paint0_linear_693_60)" stroke="black" stroke-width="4"/>
<path d="M47.7916 9.63333C46.35 9.79167 44.825 10.2083 43.7583 10.7417C43.3166 10.9667 42.825 11.1667 42.6666 11.2C42.3833 11.25 42.225 11.225 40.775 10.9667C39.125 10.6667 37.3916 11.225 35.6666 12.6083C35.1583 13.0167 35.1166 13.0833 34.9833 13.5833C34.6666 14.7667 35.1083 15.6417 36.2666 16.125C36.725 16.3083 36.8083 16.2917 36.8666 15.9333C37.0083 15.075 37.775 14 38.5416 13.6C38.9083 13.4 39.0583 13.375 39.75 13.375C40.4666 13.375 40.5916 13.4 41.1 13.6417C41.8083 13.975 42.3583 14.525 42.6916 15.2333C42.9416 15.7583 42.9583 15.85 42.9583 16.7083C42.9583 17.2083 42.925 17.775 42.8916 17.9583L42.8166 18.2917L49.1166 20.3667C52.5833 21.5083 55.4333 22.425 55.4416 22.4083C55.4583 22.3917 55.55 22.0833 55.65 21.7333C55.9833 20.5583 56.6583 19.7667 57.5916 19.4583C58.2333 19.2417 59.225 19.3167 59.8583 19.625C60.45 19.9167 61.025 20.5167 61.3166 21.15C61.525 21.5917 61.5416 21.7 61.5416 22.8083C61.5416 23.4583 61.575 24.0167 61.6083 24.0583C61.65 24.0917 61.9 24.125 62.1583 24.125C62.5583 24.125 62.6916 24.0833 62.95 23.8833C63.3333 23.5917 63.7 22.85 63.8333 22.1L63.925 21.5667L63.2833 20.475C61.1166 16.7833 59.5166 14.6417 57.7833 13.125C55.3083 10.9667 52.2 9.7 49.2083 9.625C48.6166 9.60833 47.975 9.61667 47.7916 9.63333ZM51.2166 10.7C52.2 10.9417 53.5833 11.475 53.5833 11.6083C53.5833 11.7667 52.8166 14.6167 52.75 14.6917C52.725 14.725 52.475 14.675 52.2 14.5833C51.9333 14.4833 50.4583 14.0333 48.925 13.575C45.65 12.5917 45.4833 12.5333 45.5333 12.3417C45.5583 12.2667 45.6333 11.975 45.7166 11.6833C45.8416 11.225 45.8916 11.1417 46.1583 11.0083C47.3833 10.3917 49.4333 10.2667 51.2166 10.7ZM55.5666 12.725C56.7166 13.5417 57.575 14.4917 58.0333 15.4417C58.45 16.3 58.575 16.7083 58.4 16.65C58.3416 16.625 57.3083 16.2833 56.1 15.8833C54.2833 15.275 53.9166 15.125 53.95 15.0167C53.975 14.9333 54.0916 14.4083 54.2083 13.8417C54.4666 12.5667 54.5833 12.1667 54.7 12.1667C54.75 12.1667 55.1416 12.4167 55.5666 12.725Z" fill="black"/>
<path d="M83.4583 14.1751C83.0333 14.9501 82.4666 15.5251 81.95 15.7001C81.0833 15.9918 80.425 15.8084 79.3666 14.9751L78.7833 14.5168L77.325 15.2001C76.0083 15.8251 71.4916 18.0668 71.4333 18.1251C71.425 18.1334 71.7666 18.9501 72.2083 19.9418C72.6416 20.9334 73.0583 21.9001 73.1416 22.1001C73.2166 22.3001 73.2916 22.4751 73.3 22.4918C73.3166 22.5084 73.8666 22.2251 74.5166 21.8584C75.9833 21.0334 76.5916 20.7251 76.6416 20.7751C76.6583 20.8001 76.9 22.0084 77.175 23.4751C78.375 29.8751 79 33.0334 79.1 33.1251C79.1333 33.1584 90.4416 31.0084 90.4916 30.9501C90.5166 30.9334 90.1166 28.7834 89.6 26.1834C88.3583 19.9001 88.1333 18.6751 88.1917 18.6084C88.2333 18.5668 89.3833 18.6668 91.4833 18.8834C91.8 18.9168 91.925 18.9001 91.95 18.8168C91.975 18.7584 92.0083 17.7084 92.025 16.4834L92.0666 14.2668L91.3916 14.2084C91.0166 14.1834 89.525 14.0501 88.0833 13.9168C86.6417 13.7834 85.0833 13.6501 84.625 13.6168L83.7917 13.5668L83.4583 14.1751Z" fill="black"/>
<path d="M38.95 13.9499C38.55 14.1249 38.0917 14.5749 37.875 14.9999C37.1583 16.4082 37.6583 17.9915 39.0333 18.6665C40.7833 19.5332 42.45 18.5415 42.5667 16.5749C42.6167 15.6915 42.4417 15.1749 41.8833 14.6165C41.3167 14.0582 40.7333 13.8332 39.85 13.8332C39.5 13.8415 39.0917 13.8915 38.95 13.9499Z" fill="black"/>
<path d="M57.5416 20.1167C57.0083 20.3667 56.65 20.75 56.3666 21.3667C55.7833 22.65 56.3416 24.1167 57.6833 24.8C58.2 25.0667 59.1333 25.1667 59.6083 25.0083C60.0833 24.85 60.6083 24.325 60.8833 23.7333C61.0916 23.275 61.125 23.1083 61.125 22.4583C61.125 21.7833 61.1 21.6667 60.875 21.2583C60.7416 21.0167 60.475 20.6833 60.2833 20.525C59.5333 19.9167 58.3416 19.7333 57.5416 20.1167Z" fill="black"/>
<path d="M22.0416 23.425C21.3833 23.4917 20.2333 23.7917 19.6583 24.0334L19.35 24.1584L19.675 24.925C20.1916 26.1084 20.3416 26.85 20.3916 28.3417C20.4333 29.575 20.375 30.1584 20.125 31.125C20.0833 31.275 20.2166 31.3334 21.4666 31.7334C22.2333 31.9834 22.8833 32.15 22.9166 32.1084C22.9666 32.05 25.5833 23.9834 25.6166 23.7917C25.6333 23.675 24.375 23.4417 23.475 23.3917C23.05 23.3667 22.4083 23.3834 22.0416 23.425Z" fill="black"/>
<path d="M24.75 28.125C24 30.4417 23.4083 32.3417 23.425 32.3583C23.5166 32.4167 26.1833 33.2583 26.2 33.2333C26.2166 33.225 26.4083 32.8167 26.6416 32.3333C27.5 30.5333 28.925 29.05 30.7416 28.0667L31.0083 27.9167L30.6583 27.4C30.1416 26.625 28.975 25.4667 28.2 24.95C27.5833 24.5417 26.3666 23.9167 26.1916 23.9167C26.15 23.9167 25.5 25.8083 24.75 28.125Z" fill="black"/>
<path d="M18.375 24.6668C17.6333 25.0918 16.5667 26.0335 15.975 26.7502C15.45 27.4002 14.5 29.0918 14.5 29.3752C14.5 29.4335 14.625 29.5252 14.775 29.5752C14.9167 29.6168 16.0417 29.9752 17.2583 30.3668C18.475 30.7585 19.5083 31.0835 19.5583 31.0835C19.6583 31.0835 19.8167 30.3418 19.9167 29.3418C20.0083 28.5002 19.9083 27.3335 19.6667 26.4168C19.4833 25.6835 19 24.4835 18.875 24.4502C18.825 24.4335 18.6083 24.5335 18.375 24.6668Z" fill="black"/>
<path d="M30.5417 28.7581C29.3583 29.4498 28.4083 30.3665 27.6083 31.5915C27.1167 32.3498 26.6917 33.3081 26.8 33.4081C26.925 33.5331 31.7917 35.0748 31.85 35.0165C31.875 34.9831 31.9667 34.6581 32.05 34.2915C32.2583 33.3165 32.2417 31.5998 32.0167 30.6081C31.825 29.7748 31.3417 28.4831 31.2083 28.4415C31.1583 28.4248 30.8667 28.5665 30.5417 28.7581Z" fill="black"/>
<path d="M14.175 30.3918C13.75 32.2668 13.8916 34.1418 14.6 35.9335C14.7416 36.2918 14.8916 36.5835 14.9416 36.5835C15.325 36.5835 17.0416 35.3168 17.725 34.5252C18.4166 33.7252 19.4166 32.0335 19.4166 31.6752C19.4166 31.5918 14.6333 30.0002 14.3916 30.0002C14.3083 30.0002 14.2333 30.1335 14.175 30.3918Z" fill="black"/>
<path d="M19.6333 32.4502C19.1416 33.5502 18.5583 34.3835 17.625 35.2918C17.05 35.8668 16.525 36.2835 15.975 36.6168L15.1666 37.1168L15.3 37.3252C16.0083 38.4418 16.9583 39.4168 18.05 40.1335C18.7083 40.5668 19.7416 41.0835 19.95 41.0835C20.0083 41.0835 20.6 39.3752 21.3666 36.9752C22.1 34.7252 22.7083 32.8335 22.725 32.7835C22.75 32.7168 22.2583 32.5168 21.4416 32.2502C20.7166 32.0085 20.0833 31.7918 20.0416 31.7752C19.9916 31.7585 19.8083 32.0668 19.6333 32.4502Z" fill="black"/>
<path d="M23.2 32.9417C23.075 33.2667 20.5083 41.2834 20.525 41.3C20.5333 41.3084 20.8416 41.3834 21.2083 41.4584C22.7416 41.775 24.4583 41.6834 25.8916 41.2084C26.8583 40.8834 26.8166 40.9584 26.475 40.1167C25.675 38.1334 25.5 36.3334 25.9166 34.4084C26.0166 33.9334 26.0333 33.725 25.9666 33.7084C25.9166 33.6917 25.3333 33.5 24.6666 33.2834C24 33.0667 23.4083 32.875 23.3583 32.8584C23.3 32.8334 23.225 32.875 23.2 32.9417Z" fill="black"/>
<path d="M26.3916 34.5585C26.0916 35.9668 26.125 37.2668 26.5083 38.7085C26.6916 39.4252 27.1916 40.5835 27.3166 40.5835C27.4666 40.5835 28.4416 39.9418 29.0333 39.4418C29.8666 38.7418 30.6583 37.7252 31.2083 36.6502C31.4583 36.1502 31.6666 35.7002 31.6666 35.6418C31.6666 35.5668 27.7 34.2168 26.6583 33.9418C26.5583 33.9085 26.5 34.0418 26.3916 34.5585Z" fill="black"/>
<path d="M95.4583 37.9998C91.55 43.0498 91.2666 43.4831 90.8416 44.8165C90.4416 46.0915 90.3833 46.5248 90.3833 47.9165C90.3833 48.9581 90.425 49.3498 90.5666 49.9581C90.7416 50.6331 91.3 51.9748 91.3833 51.8998C91.4 51.8831 91.5583 51.6415 91.7333 51.3665C91.9083 51.0998 92.3 50.5665 92.6083 50.1915C93.15 49.5248 93.1666 49.4998 93.1666 49.0248C93.1666 48.5248 93.3 47.5331 93.3916 47.3915C93.4166 47.3498 93.525 47.5998 93.625 47.9498C93.725 48.3081 93.8416 48.6248 93.8833 48.6665C93.9333 48.7165 94.1166 48.6248 94.3333 48.4415C95.2666 47.6998 96.8 46.7998 97.4083 46.6415C97.5666 46.5998 97.5833 46.5415 97.5833 46.0081C97.5833 45.0998 97.3666 43.2831 96.9416 40.7081C96.7333 39.4248 96.5416 37.9998 96.5083 37.5415L96.4583 36.7081L95.4583 37.9998Z" fill="black"/>
<path d="M55.4416 43.9251C52.8416 44.1834 50.4083 45.3834 48.5583 47.3334C46.5499 49.4334 45.5499 51.9918 45.5583 54.9584C45.5583 57.2501 46.1499 59.1751 47.4333 61.0918C49.0749 63.5501 51.8333 65.3084 54.8249 65.8001C55.8666 65.9668 57.8499 65.9251 58.8333 65.7084C60.9833 65.2334 62.7749 64.2501 64.3416 62.6751C65.9166 61.0918 66.9083 59.2834 67.3833 57.0834C67.5999 56.1001 67.5999 53.7501 67.3916 52.7751C66.6583 49.3418 64.5166 46.5501 61.4583 45.0251C59.6666 44.1251 57.4749 43.7251 55.4416 43.9251Z" fill="black"/>
<path d="M103.167 45.1747C98.1666 46.9997 97.0666 47.4164 96.4333 47.7664C93.9916 49.108 91.8416 51.683 90.9666 54.333C90.2583 56.4664 90.4083 58.108 91.4 59.1747C91.65 59.4497 91.8833 59.6664 91.925 59.6664C91.9583 59.6664 92.2 59.2414 92.4416 58.7164C93.275 56.983 94.475 55.0747 95.725 53.5164C96.5583 52.483 97.7416 51.183 98.0833 50.933C98.2833 50.783 98.2333 50.8914 97.7833 51.6247C96.625 53.5247 95.6833 55.683 95.2083 57.533C94.95 58.558 94.7 60.1414 94.7833 60.2247C94.8583 60.308 96.1583 59.9247 96.6333 59.683C97.7416 59.1247 98.8583 58.108 99.9166 56.683C101.317 54.808 102.392 52.6997 104.458 47.833C105.233 46.008 105.767 44.8997 106.117 44.3914C106.233 44.2164 106.283 44.083 106.225 44.0914C106.167 44.0914 104.792 44.5747 103.167 45.1747Z" fill="black"/>
<path d="M13.5 50.558C9.01664 50.9997 6.62497 53.058 7.06664 56.083C7.14997 56.6497 10.0916 67.033 10.2 67.1497C10.25 67.1914 29.5 60.433 29.6083 60.333C29.6583 60.2914 27.2166 51.6164 27.125 51.5164C27.0916 51.483 14 50.4914 13.875 50.5164C13.8333 50.5247 13.6583 50.5414 13.5 50.558ZM14.6166 51.3914C14.65 51.4164 14.5166 51.5497 14.3 51.683C13.7083 52.0747 13.7 52.4247 14.2916 52.533C14.8583 52.6414 16.1666 52.2914 16.7916 51.8747L17.0916 51.6664L18.9166 51.8914C19.925 52.0164 20.7166 52.1497 20.6833 52.183C20.4416 52.4164 8.91664 55.9997 8.38331 55.9997C8.22497 55.9997 8.08331 55.5164 8.08331 54.9747V54.5747L8.31664 54.6997C9.32497 55.2247 10.5833 54.5664 10.5833 53.5247C10.5833 53.1247 10.3333 52.7164 9.99164 52.533C9.73331 52.408 9.72497 52.3914 9.87497 52.283C10.125 52.0997 11.2 51.6747 11.975 51.458C12.625 51.2747 12.8166 51.258 13.625 51.2997C14.1333 51.333 14.575 51.3747 14.6166 51.3914ZM21.75 53.7414C21.75 53.783 21.6083 53.9414 21.4416 54.083C20.775 54.6747 19.5583 55.008 18.7333 54.8414C18.4916 54.783 18.2416 54.7164 18.1833 54.6747C18.1166 54.633 18.7166 54.4414 19.7666 54.1747C20.7 53.933 21.5 53.7247 21.5416 53.708C21.6916 53.658 21.75 53.6664 21.75 53.7414ZM14.3916 56.0664C16.075 56.933 15.2166 59.3414 13.2166 59.3497C12.3916 59.3497 11.775 59.008 11.4916 58.383C11.1916 57.7247 11.3416 57.0664 11.925 56.483C12.575 55.833 13.5916 55.6664 14.3916 56.0664ZM25.175 56.4164C25.3333 56.458 25.575 56.6164 25.7166 56.758C25.9166 56.9747 25.9583 57.0747 25.9583 57.4414C25.9583 58.1914 25.4416 58.6664 24.625 58.6664C24.15 58.6664 23.7916 58.4914 23.5833 58.1414C23.1916 57.4997 23.525 56.733 24.3083 56.4497C24.6916 56.3164 24.7916 56.308 25.175 56.4164ZM18.2083 56.8247C18.5583 57.0164 18.7833 57.508 18.7083 57.8914C18.6333 58.2997 18.1416 58.7914 17.6833 58.908C17.1666 59.0497 16.7666 58.9497 16.4 58.583C16.1333 58.3164 16.0833 58.2164 16.0833 57.9247C16.0833 57.4997 16.25 57.1497 16.5666 56.933C17.0666 56.5747 17.7 56.533 18.2083 56.8247ZM21.9833 58.908C22.8416 59.3497 23.1416 60.2664 22.7083 61.1414C22.35 61.858 21.65 62.2664 20.7916 62.2747C19.6833 62.2747 18.9166 61.608 18.9166 60.6247C18.9166 59.7414 19.5583 58.9997 20.5416 58.7414C20.9083 58.6414 21.6333 58.733 21.9833 58.908ZM13.7166 61.6247C14 61.808 14.1916 62.2914 14.1333 62.658C14.0583 63.1164 13.6083 63.5164 13.1083 63.558C12.1333 63.658 11.5166 62.7497 12.025 61.9914C12.3916 61.433 13.175 61.2664 13.7166 61.6247Z" fill="black"/>
<path d="M89.4666 66.6749C88.525 66.8999 87.375 67.7499 86.9 68.5833C86.775 68.7916 85.3 71.9166 83.625 75.5416C81.9416 79.1583 80.5416 82.1499 80.5083 82.1833C80.4833 82.2083 78.7916 79.2916 76.75 75.6999C74.4916 71.7166 72.9 68.9916 72.6666 68.7333C72.1916 68.1833 71.45 67.7083 70.725 67.4833C70.25 67.3416 70.0083 67.3166 69.3083 67.3499C68.4 67.3999 67.975 67.5249 67.1833 67.9916L66.7416 68.2499H56.475C45.1583 68.2499 45.6583 68.2333 44.6333 68.7749C43.9916 69.1083 43.2833 69.8166 42.9583 70.4333C42.75 70.8333 42.6666 70.9166 42.375 70.9999C41.5166 71.2499 40.6166 71.9166 40.1083 72.6833C39.975 72.8833 38.2416 75.9083 36.25 79.3999L32.6333 85.7666L32.4916 85.4833C32.4166 85.3333 31.0083 82.3166 29.3666 78.7916C27.7333 75.2583 26.275 72.1999 26.1416 71.9833C25.475 70.8916 23.9916 70.0833 22.65 70.0833C21.925 70.0833 21.3666 70.2249 20.5166 70.6333C19.2583 71.2416 18.45 72.1749 18.125 73.4249C17.975 73.9666 17.9666 74.9499 18.0916 75.4833C18.1833 75.8333 27.725 96.4916 28.3666 97.7083C28.9583 98.8333 30.15 99.6583 31.4833 99.8499C32.6 100.017 34.025 99.6499 34.9333 98.9749C35.1833 98.7833 35.525 98.4749 35.6833 98.2833C35.8416 98.0916 37.4083 95.4083 39.175 92.3083L42.375 86.6666L42.4166 94.1916L42.4583 101.708L42.65 102.175C42.9166 102.85 43.4083 103.575 43.8416 103.942C44.3166 104.35 45.25 104.808 45.825 104.917C46.1083 104.967 50.0833 105 56.6166 105C67.875 105 67.3916 105.017 68.3916 104.533C69.3166 104.092 70.1833 103.058 70.5 102.017C70.6583 101.5 70.6666 101.225 70.6666 92.3083C70.6666 86.7333 70.7 83.1666 70.7416 83.2083C70.7833 83.2583 72.2166 85.7499 73.925 88.7499C75.625 91.7499 77.125 94.3583 77.25 94.5416C78.0166 95.6416 79.4916 96.3499 81.0416 96.3666C82.3083 96.3749 83.55 95.7916 84.3333 94.8166C84.6333 94.4416 85.7583 92.0833 89.75 83.5083C92.525 77.5416 94.8583 72.4499 94.95 72.1833C95.2916 71.1416 95.1 69.6916 94.4833 68.7333C93.925 67.8499 92.7083 67.0083 91.5583 66.6999C91.075 66.5749 89.9666 66.5583 89.4666 66.6749Z" fill="black"/>
<defs>
<linearGradient id="paint0_linear_693_60" x1="57.5" y1="0" x2="57.5" y2="115" gradientUnits="userSpaceOnUse">
<stop stop-color="#A1C9C0"/>
<stop offset="1" stop-color="#E1BDAF"/>
</linearGradient>
</defs>
</svg>
