<svg width="115" height="115" viewBox="0 0 115 115" fill="none" xmlns="http://www.w3.org/2000/svg">
<rect x="2" y="2" width="111" height="111" rx="23" fill="url(#paint0_linear_693_21)" stroke="black" stroke-width="4"/>
<path d="M25.8187 16.3815C20.95 16.7502 16.5562 20.2002 15 24.869C14.6625 25.8627 14.4562 26.894 14.375 27.9377C14.2875 29.1065 14.2875 86.894 14.375 88.0627C14.8 93.6315 18.8812 98.269 24.35 99.4065C24.7625 99.494 25.5312 99.594 26.0625 99.6252C26.7375 99.6752 36.0937 99.6877 56.7187 99.669C84.1437 99.6502 86.45 99.644 86.9875 99.544C89.8125 99.0377 92.0562 97.894 93.975 95.9752C96.1687 93.7752 97.4125 91.0377 97.625 87.9377C97.675 87.2815 97.6875 81.6252 97.675 70.4065L97.6562 53.844H93.5H89.3437L89.3125 70.9377C89.2812 87.344 89.275 88.044 89.1687 88.3752C88.9375 89.0627 88.6125 89.5752 88.0937 90.094C87.5187 90.6752 86.9562 91.0002 86.2125 91.1877C85.7375 91.3127 85.3875 91.3127 56 91.3127C26.6125 91.3127 26.2625 91.3127 25.7875 91.1877C25.0437 91.0002 24.4812 90.6752 23.9062 90.094C23.325 89.519 23 88.9565 22.8125 88.2127C22.6875 87.7377 22.6875 87.3877 22.6875 58.0002C22.6875 28.6127 22.6875 28.2627 22.8125 27.7877C23 27.044 23.325 26.4815 23.9062 25.9065C24.4812 25.3252 25.0437 25.0002 25.7875 24.8127C26.2625 24.6877 26.5625 24.6877 45.2937 24.6877H64.3125V20.5002V16.3127L45.3937 16.319C34.9812 16.3252 26.175 16.3502 25.8187 16.3815Z" fill="black"/>
<path d="M90.7438 24.8562C90.2813 25.3312 70.9125 45.8 57.2875 60.2187C54.8875 62.7625 52.825 64.9437 52.7063 65.0625L52.5 65.2812L44.875 57.6562L37.25 50.0312L34.3438 52.9375C32.7438 54.5375 31.4375 55.8687 31.4375 55.9062C31.4375 55.9375 36.2313 60.7625 42.0938 66.625L52.75 77.2812L52.8938 77.125C52.975 77.0375 53.7 76.2812 54.5063 75.4375C55.3125 74.5937 60.9063 68.675 66.9438 62.2812C72.975 55.8875 82.2938 46.0187 87.6438 40.35C92.9938 34.6812 97.375 30.025 97.375 30.0062C97.375 29.9687 91.3875 24.3562 91.3188 24.325C91.3 24.3187 91.0375 24.5562 90.7438 24.8562Z" fill="black"/>
<defs>
<linearGradient id="paint0_linear_693_21" x1="57.5" y1="0" x2="57.5" y2="115" gradientUnits="userSpaceOnUse">
<stop stop-color="#A1C9C0"/>
<stop offset="1" stop-color="#E1BDAF"/>
</linearGradient>
</defs>
</svg>
