<svg width="115" height="115" viewBox="0 0 115 115" fill="none" xmlns="http://www.w3.org/2000/svg">
<rect x="2" y="2" width="111" height="111" rx="23" fill="url(#paint0_linear_693_16)" stroke="black" stroke-width="4"/>
<g clip-path="url(#clip0_693_16)">
<path d="M55.9351 10.1445C55.4038 11.4306 55.2219 11.8625 55.1214 12.1264C54.906 12.6879 54.3842 14.1468 54.006 15.2553C53.7954 15.8552 53.5991 16.4022 53.5561 16.479C53.4795 16.6326 53.2688 16.8389 53.1109 16.9205C52.996 16.9781 50.0904 17.7027 49.2574 17.8803C48.2857 18.0914 48.3671 18.1442 46.3805 16.0711C45.5045 15.1545 44.4227 14.022 43.9727 13.5517C43.5275 13.0814 43.0824 12.6399 42.9818 12.5727C42.642 12.3328 42.5702 12.3568 40.4113 13.3022C39.3438 13.7725 38.396 14.2092 38.3003 14.2811C38.2045 14.3483 38.0753 14.4779 38.0131 14.5691C37.9077 14.7178 37.8982 14.785 37.8982 15.2409C37.8982 15.5192 37.9365 16.1815 37.9843 16.7094C38.1279 18.3554 38.3003 21.3115 38.262 21.489C38.1662 21.9113 37.9748 22.1081 37.1562 22.6168C36.0935 23.2742 34.0735 24.4835 33.9251 24.5507C33.6905 24.6515 33.3171 24.6947 33.0634 24.6467C32.9246 24.6227 32.1731 24.2868 31.2444 23.8405C27.1181 21.8442 26.9554 21.7674 26.7447 21.7626C26.6346 21.7626 26.4671 21.7962 26.3666 21.8442C26.2565 21.8969 25.6485 22.4968 24.7343 23.447C23.9348 24.282 23.2312 25.0258 23.1689 25.1026C23.0158 25.3041 22.9918 25.7456 23.1211 26.0672C23.236 26.3503 24.3274 28.7161 25.0215 30.1702C25.6246 31.4419 25.6821 31.6146 25.6581 32.0369L25.6438 32.3633L24.8874 33.4142C24.4758 33.9901 23.796 34.9307 23.3796 35.4969C22.6998 36.4279 22.5993 36.5383 22.3695 36.6582C22.0297 36.8358 21.6946 36.8358 19.8947 36.6486C18.1044 36.4663 16.3093 36.3127 15.9025 36.3127C15.4621 36.3127 15.3137 36.4183 15.0791 36.8886C14.3946 38.2563 13.2505 40.6461 13.1883 40.8381C13.0543 41.2508 13.1117 41.3467 14.0787 42.3065C15.3472 43.5686 17.1806 45.3682 17.5396 45.6993C18.1571 46.2752 18.2576 46.7695 18.0374 48.1419C17.8986 49.0249 17.7023 50.5414 17.6257 51.2996C17.597 51.5827 17.5539 51.8754 17.5252 51.9474C17.4582 52.1298 17.2667 52.3169 17.0609 52.4081C16.9651 52.4513 15.6248 52.744 14.0834 53.0608C12.5421 53.3775 11.1682 53.6702 11.0342 53.7134C10.589 53.8382 10.3497 54.1357 10.2827 54.6444C10.2683 54.7644 10.2109 55.5274 10.1582 56.348C10.1055 57.1638 10.0385 57.9124 10.0146 58.0036C9.98109 58.1044 9.96673 58.5219 9.9763 59.0258L9.99066 59.88L11.2352 60.4462C12.7383 61.1277 13.3798 61.3964 15.1461 62.0874C15.8881 62.3754 16.5678 62.6585 16.6588 62.7161C16.8742 62.8505 17.0848 63.148 17.171 63.4407C17.2093 63.5751 17.3529 64.2997 17.4869 65.0531C17.6162 65.8066 17.7837 66.6799 17.8507 66.9919C17.9848 67.6349 17.9752 67.8845 17.7981 68.1196C17.7406 68.2012 16.6588 69.3289 15.395 70.6246C13.7579 72.309 13.0686 73.048 12.992 73.2064C12.8245 73.5471 12.8676 73.8399 13.1787 74.5405C13.3175 74.8524 13.6813 75.7354 13.9877 76.5032C14.4329 77.6166 14.5813 77.9285 14.7153 78.0677C15.0121 78.3748 15.4094 78.4132 16.6301 78.2548C17.396 78.1588 19.215 78.0389 20.7659 77.9861C21.6754 77.9525 21.6802 77.9525 21.9435 78.0725C22.2403 78.2116 22.3504 78.3412 22.9727 79.2962C24.0832 81.0046 24.7343 82.0459 24.8204 82.2331C25.0023 82.6458 24.9497 82.8425 24.1838 84.5893C23.8104 85.4483 23.2551 86.6864 22.9535 87.3487C22.6472 88.0061 22.36 88.6635 22.3121 88.8075C22.1972 89.1338 22.1972 89.4698 22.3073 89.6329C22.4078 89.7913 23.3317 90.6695 24.1838 91.4277C24.538 91.7396 24.9736 92.1331 25.1555 92.3011C25.7203 92.829 26.0171 92.9585 26.4719 92.8865C26.6059 92.8674 27.5298 92.5266 28.5255 92.1283C30.7322 91.2549 32.0486 90.7559 32.2736 90.7127C32.6996 90.6359 32.9485 90.7559 34.7149 91.8836C35.2797 92.2435 35.926 92.6466 36.151 92.7762C37.0892 93.3184 37.1706 93.592 36.9647 95.5307C36.9121 96.0202 36.8451 96.956 36.8163 97.6182C36.7924 98.2757 36.7397 99.0723 36.7015 99.3842C36.644 99.8737 36.644 99.9793 36.7062 100.186C36.8163 100.555 36.9743 100.704 37.5727 100.987C38.9992 101.659 41.4213 102.729 41.5218 102.729C41.7851 102.729 41.742 102.772 44.1163 100.234C46.4332 97.7622 46.3518 97.8342 46.9502 97.7334C47.2613 97.6758 47.3331 97.6854 48.0464 97.8294C49.2814 98.0789 51.6365 98.6404 51.8663 98.7412C52.1391 98.8563 52.3976 99.0915 52.5412 99.341C52.6035 99.4466 52.7902 99.9601 52.9529 100.474C53.6279 102.604 54.4081 104.975 54.4943 105.152C54.6187 105.402 54.8006 105.594 55.0208 105.709C55.1884 105.795 55.332 105.8 57.5866 105.8H59.9705L60.6454 104.418C61.3347 103.012 61.7225 102.153 62.3304 100.67C62.766 99.6098 62.8139 99.5186 63.0436 99.3122C63.3261 99.0579 63.6181 98.9715 65.0637 98.722C65.7865 98.5972 66.7104 98.434 67.1077 98.3525C67.9598 98.1845 68.156 98.1941 68.4959 98.4292C68.6252 98.5156 69.0464 98.9523 69.4389 99.3986C70.5303 100.646 72.9429 103.147 73.1152 103.204C73.503 103.338 73.6083 103.305 77.2176 101.86C78.1798 101.477 78.3712 101.347 78.4574 101.03C78.5196 100.809 78.4143 97.1575 78.3042 95.6987C78.1798 94.0431 78.2468 93.9231 79.9365 92.8722C80.4823 92.5314 81.2051 92.0707 81.5354 91.85C82.2821 91.3557 82.5167 91.2501 82.9283 91.2213C83.3687 91.1925 83.5746 91.2549 84.5702 91.7108C85.0441 91.9316 86.2504 92.4738 87.2509 92.9153C88.7253 93.568 89.1226 93.7263 89.338 93.7455C89.7784 93.7791 89.9698 93.664 90.6448 92.9537C90.9607 92.613 91.6261 91.9268 92.1144 91.4277C93.1148 90.4007 93.2345 90.2232 93.1962 89.8441C93.1723 89.5945 92.7271 88.5292 91.3868 85.5203C90.6544 83.8743 90.6065 83.6967 90.7405 83.2408C90.7836 83.0777 91.0038 82.6842 91.3102 82.2091C91.583 81.7916 92.0378 81.0573 92.325 80.5823C92.6122 80.1072 92.9425 79.6177 93.0574 79.4977C93.4308 79.0898 94.0195 78.941 94.6706 79.0898C94.8908 79.1378 95.5657 79.1906 96.6571 79.2386C97.5666 79.277 98.7969 79.3298 99.3904 79.3633C100.434 79.4113 100.487 79.4113 100.688 79.3202C101.071 79.1522 101.037 79.2194 102.148 76.5032C102.827 74.8476 102.899 74.5981 102.789 74.2574C102.746 74.1278 102.172 73.5279 100.52 71.8771C99.0888 70.4519 98.2511 69.5785 98.1554 69.4153C97.8538 68.921 97.8538 68.8058 98.1602 67.2846C98.3038 66.5504 98.4905 65.5522 98.5671 65.0771C98.749 63.935 98.8399 63.7718 99.4096 63.4839C99.5963 63.3927 101.746 62.6729 104.091 61.9147C105.283 61.5308 105.498 61.4204 105.623 61.1277C105.709 60.9165 105.752 60.0719 105.781 58.018L105.81 56.0457L105.527 55.8633C104.981 55.513 104.469 55.2682 103.383 54.8459C101.329 54.0445 100.281 53.6846 99.5675 53.5311C99.3856 53.4927 95.2115 53.4687 84.7139 53.4495L70.1139 53.4207L69.9176 53.3151C69.6352 53.1615 69.4629 52.9408 69.1517 52.3361C68.5773 51.2084 67.9837 50.4118 66.9354 49.3608C65.2265 47.6572 63.508 46.6207 61.3156 45.9776C60.6023 45.7713 60.0901 45.6945 58.9269 45.6177C57.7494 45.5409 56.409 45.5841 55.6575 45.7137C52.9529 46.1936 50.6456 47.4269 48.6926 49.4424C46.6438 51.5587 45.4997 53.9438 45.1694 56.8087C45.0737 57.6629 45.0976 59.5344 45.2173 60.2735C45.4375 61.6555 45.8348 62.9368 46.3709 64.0262C47.6395 66.5984 50.0233 68.9066 52.5939 70.0583C55.2362 71.2437 58.3669 71.474 61.3156 70.6966C63.4553 70.1351 65.1834 69.1034 66.9737 67.323C67.9119 66.392 68.0603 66.3008 68.6395 66.296C68.8453 66.296 70.5878 66.32 72.5073 66.3488C74.4316 66.3776 77.2272 66.392 78.7255 66.3728C81.0184 66.3488 81.4444 66.3536 81.4253 66.4064C80.7503 68.1052 80.3434 69.0458 79.9413 69.8088C76.648 76.0281 70.7984 80.6111 64.0441 82.2571C62.0193 82.7513 61.5884 82.8041 59.0801 82.8713C56.2941 82.9481 55.3607 82.8761 53.2641 82.449C51.0477 81.9931 49.4058 81.4365 47.4719 80.4863C42.4649 78.0245 38.5013 74.0702 36.127 69.1754C35.5813 68.0428 35.2462 67.203 34.758 65.725C34.2075 64.0646 33.9777 63.0424 33.7719 61.3388C33.7001 60.7342 33.6857 60.2447 33.6857 58.3395C33.6905 55.1819 33.7575 54.6396 34.5282 51.7651C35.0548 49.7975 35.4234 48.7946 36.2036 47.2541C38.7598 42.1769 42.91 38.1603 47.9746 35.8664C49.9228 34.9834 51.7514 34.3932 53.4029 34.1053C53.9725 34.0093 55.7341 33.8173 56.9212 33.7261C57.8642 33.6494 59.7024 33.6638 60.6167 33.7453C63.5846 34.0237 66.2078 34.7867 69.0608 36.1928C71.5404 37.4213 73.6322 38.8993 75.4273 40.7037C76.2698 41.5435 76.9256 42.3545 78.3521 44.3172C79.5727 45.9872 79.568 45.9824 79.8265 46.184C80.3243 46.5727 81.1476 46.6591 81.7556 46.3903C81.8704 46.3424 82.4832 45.968 83.1198 45.5649C83.7517 45.1618 86.4084 43.511 89.0125 41.9034L93.7563 38.9761L93.8759 38.7362C94.0339 38.4194 94.0435 37.882 93.8951 37.5604C93.8041 37.3589 93.2249 36.4951 91.9277 34.6379C91.6261 34.206 91.3485 33.7741 91.3102 33.6782C91.2623 33.5678 91.2432 33.3998 91.2575 33.1935C91.2719 32.9151 91.3245 32.7808 91.7218 31.9458C92.8611 29.5655 94.1249 26.8446 94.1488 26.7198C94.2158 26.3983 94.1392 26.3071 92.392 24.6179C91.4681 23.7253 90.6352 22.9575 90.5395 22.9095C90.2092 22.7511 90.0081 22.8087 88.4189 23.5238C87.6195 23.8837 86.3414 24.4739 85.5803 24.8338C84.2735 25.4481 84.1777 25.4865 83.9049 25.4865C83.6847 25.4865 83.5506 25.4529 83.3592 25.3569C83.1342 25.2417 81.2769 23.8453 80.0131 22.8423C79.3813 22.3384 79.1754 22.0361 79.1754 21.609C79.1754 21.4746 79.1994 20.606 79.2281 19.6847C79.3095 16.9877 79.3143 15.3945 79.2425 15.1929C79.1467 14.9146 78.9122 14.7418 78.1558 14.3915C77.0501 13.8732 75.03 13.0718 74.7667 13.0478C74.2785 12.9998 74.2928 12.9902 71.8611 15.4137C69.3432 17.9283 69.3911 17.8899 68.7017 17.9235C68.3667 17.9379 68.0603 17.8995 66.9306 17.7027C66.1791 17.5684 65.2887 17.4148 64.9536 17.362C64.2835 17.2516 64.0489 17.1605 63.8335 16.9109C63.6516 16.7046 63.575 16.5174 62.5075 13.6813C61.2581 10.3557 61.3491 10.5668 61.0523 10.2453L60.7938 9.96696H58.4004H56.0117L55.9351 10.1445Z" fill="black"/>
</g>
<defs>
<linearGradient id="paint0_linear_693_16" x1="57.5" y1="0" x2="57.5" y2="115" gradientUnits="userSpaceOnUse">
<stop stop-color="#A1C9C0"/>
<stop offset="1" stop-color="#E1BDAF"/>
</linearGradient>
<clipPath id="clip0_693_16">
<rect width="95.8333" height="95.8333" fill="white" transform="translate(9.96667 9.9668)"/>
</clipPath>
</defs>
</svg>
