<svg width="115" height="115" viewBox="0 0 115 115" fill="none" xmlns="http://www.w3.org/2000/svg">
<rect x="2" y="2" width="111" height="111" rx="23" fill="url(#paint0_linear_684_2)" stroke="black" stroke-width="4"/>
<g clip-path="url(#clip0_684_2)">
<path d="M24.551 7.34679C23.5612 7.65292 23.2041 7.81618 22.1735 8.42843C17.7143 11.0611 12.1326 17.9488 9.19387 24.4488C7.22448 28.806 6.62244 32.5509 7.29591 36.3876C9.14285 46.9897 20.2143 63.9999 34.6531 78.4284C47.3265 91.1019 62.2755 101.418 72.9184 104.837C77.3571 106.265 80.5408 106.439 84.2959 105.469C87.3163 104.694 90.7959 103.061 94.1939 100.826C99.5714 97.2958 104 92.8162 105.408 89.4693C106.724 86.357 105.878 83.9999 102.112 80.2652C96.4388 74.6325 85.1735 67.2958 79.6939 65.6835C77.4286 65.0101 75.6326 65.2754 73.9898 66.5203C72.449 67.6733 71.5102 69.1325 69.7347 73.1019C69.0714 74.5815 68.3877 76.0305 68.2041 76.3366C67.8265 76.959 67.8469 76.959 66.7551 76.5101C62.6735 74.857 54.7347 69.1427 49.7143 64.2448C44.6939 59.3468 38.3367 50.6937 36.5714 46.3366C36.1224 45.2346 36.1224 45.255 36.7449 44.8774C37.051 44.6937 38.5102 43.9999 39.9898 43.3468C43.898 41.6019 45.4082 40.6223 46.5612 39.0917C47.8367 37.408 48.0714 35.6121 47.3469 33.2448C45.6326 27.6019 37.8469 15.7958 32.3367 10.459C29.3061 7.52026 26.9898 6.6019 24.551 7.34679ZM26.7551 13.3468C27.4592 13.8162 29.7143 16.0917 31.0204 17.6631C34.6633 22.0509 38.8367 28.4182 40.8265 32.6427C41.3571 33.7856 41.898 35.2141 41.898 35.4999C41.898 35.908 40.5204 36.7243 37.7347 37.9692C33.8469 39.6937 32.4082 40.5611 31.4898 41.7243C29.7755 43.8672 29.8775 46.1121 31.8877 50.1733C34.3775 55.2039 40.2041 63.0509 45.102 67.959C49.2551 72.1223 56.1939 77.4386 61.1224 80.255C66.3877 83.2448 69.2041 83.5611 71.5816 81.4284C72.6837 80.4386 73.4592 79.1529 74.8673 75.9795C76.2143 72.9386 77.0714 71.3672 77.4694 71.2141C77.7347 71.1121 79.5612 71.8264 81.3265 72.7141C88.3163 76.2346 97.6735 83.2244 99.9286 86.6121L100.173 86.9795L99.9286 87.4795C99.2347 88.8264 97.3163 90.9897 95.2143 92.806C91.0612 96.3774 86.1326 99.1019 82.1837 99.9795C80.7347 100.296 78.7347 100.296 77.2143 99.9693C74.8265 99.4488 72.2959 98.5101 69.0612 96.9386C58.3877 91.7652 45.2143 81.4897 34.9184 70.3162C23.4286 57.8468 14.949 44.3978 13.1122 35.755C12.8265 34.408 12.8061 32.3366 13.0612 31.1325C14.0306 26.6427 17.3877 20.8672 21.602 16.4488C23.1939 14.7856 25.4796 13.0305 26.0918 13.0203C26.1735 13.0203 26.4796 13.1733 26.7551 13.3468Z" fill="black"/>
<path d="M61.3878 10.7446C61.1939 10.7548 60.5307 10.8262 59.9082 10.8772C58.3572 11.0303 56.7347 11.265 56.1327 11.4385C55.4694 11.6221 54.898 12.1936 54.6939 12.8772C54.3878 13.8976 54.9388 15.0507 55.9286 15.4283C56.449 15.6221 56.7552 15.6119 59.1939 15.265C61.1633 14.9895 65.6123 14.8772 67.7347 15.0507C74.5001 15.6119 80.6429 17.6629 86.2347 21.214C88.7245 22.7956 90.9286 24.6017 93.1225 26.8568C98.0409 31.9181 101.163 37.8364 102.612 44.8976C102.867 46.163 103.133 46.6425 103.765 47.0405C105.051 47.8262 106.765 46.9997 106.969 45.4895C107.102 44.5201 105.918 40.0405 104.786 37.1527C103.643 34.265 102.612 32.3058 100.816 29.6017C97.9286 25.2446 94.398 21.6629 89.9592 18.5609C83.6021 14.1221 76.1123 11.4589 68.0715 10.7752C66.9592 10.6834 62.2552 10.6527 61.3878 10.7446Z" fill="black"/>
<path d="M59.5612 25.112C58.0306 25.3161 57.5101 25.4487 57.0918 25.7242C56.551 26.0814 56.2653 26.5916 56.2142 27.3365C56.153 28.163 56.4387 28.7446 57.1428 29.214C57.7244 29.612 58.1224 29.6324 59.9489 29.3977C61.4999 29.1936 64.5612 29.1936 66.1224 29.3977C69.7448 29.8773 73.0102 31.061 75.9795 32.9895C80.7857 36.112 84.102 40.8059 85.3163 46.2242C85.6326 47.6732 85.6836 47.7854 86.0408 48.214C86.5816 48.8671 87.6836 49.1222 88.4591 48.7957C88.8979 48.6222 89.4183 48.0916 89.6122 47.6222C89.8265 47.1222 89.755 46.2548 89.3571 44.6834C87.1734 36.0303 80.6122 29.1732 71.7653 26.2957C70.2755 25.8161 69.204 25.5508 67.4693 25.2548C65.8571 24.9691 61.2244 24.8875 59.5612 25.112Z" fill="black"/>
<path d="M58.7041 39.2959C58.0612 39.3877 57.5612 39.5204 57.2857 39.6734C56.0204 40.3673 55.8265 42.0918 56.898 43.0612C57.4898 43.602 57.9286 43.6938 59.1735 43.551C61.2959 43.3061 63.0714 43.4694 64.9388 44.0918C67.5 44.9489 69.5714 46.5204 70.9796 48.6632C71.7041 49.7653 72.1326 50.7449 72.5 52.2143C72.6837 52.9183 72.8877 53.4489 73.051 53.6734C73.6224 54.4183 74.8367 54.6734 75.7551 54.2347C76.2551 53.9898 76.7449 53.3163 76.8571 52.7245C77 51.9592 76.3673 49.7143 75.5102 47.9489C72.5612 41.8979 65.6633 38.3469 58.7041 39.2959Z" fill="black"/>
</g>
<defs>
<linearGradient id="paint0_linear_684_2" x1="-8.5" y1="122" x2="130" y2="-1.408e-06" gradientUnits="userSpaceOnUse">
<stop stop-color="#728EA1"/>
<stop offset="1" stop-color="#FCA98E"/>
</linearGradient>
<clipPath id="clip0_684_2">
<rect width="100" height="99.1837" fill="white" transform="translate(7 7)"/>
</clipPath>
</defs>
</svg>
